<?xml version="1.0" standalone="no"?>
<!DOCTYPE svg PUBLIC "-//W3C//DTD SVG 20010904//EN"
 "http://www.w3.org/TR/2001/REC-SVG-20010904/DTD/svg10.dtd">
<svg version="1.0" xmlns="http://www.w3.org/2000/svg"
 width="360.000000pt" height="360.000000pt" viewBox="0 0 360.000000 360.000000"
 preserveAspectRatio="xMidYMid meet">
<metadata>
Created by potrace 1.14, written by Peter Selinger 2001-2017
</metadata>
<g transform="translate(0.000000,360.000000) scale(0.100000,-0.100000)"
fill="#000000" stroke="none">
<path d="M1320 2050 l0 -360 60 0 60 0 0 -60 0 -60 60 0 60 0 0 60 0 60 60 0
60 0 0 60 0 60 60 0 60 0 0 -60 0 -60 60 0 c47 0 60 -3 60 -15 0 -8 3 -15 6
-15 3 0 57 45 120 101 l114 101 0 274 0 274 -120 0 -120 0 0 -240 0 -240 -60
0 -60 0 0 240 0 240 -60 0 -60 0 0 -240 0 -240 -60 0 -60 0 0 240 0 240 -120
0 -120 0 0 -360z"/>
<path d="M430 1220 l0 -150 25 0 c20 0 25 -5 25 -25 0 -20 5 -25 25 -25 20 0
25 5 25 25 0 20 5 25 25 25 20 0 25 5 25 25 0 20 5 25 25 25 20 0 25 -5 25
-25 0 -20 5 -25 25 -25 20 0 25 -5 25 -25 0 -20 5 -25 25 -25 20 0 25 5 25 25
0 20 5 25 25 25 l25 0 0 150 0 150 -50 0 -50 0 0 -100 0 -100 -25 0 -25 0 0
100 0 100 -25 0 -25 0 0 -100 0 -100 -25 0 -25 0 0 100 0 100 -50 0 -50 0 0
-150z"/>
<path d="M2120 1320 l0 -50 -50 0 c-47 0 -50 -2 -50 -25 0 -23 3 -25 50 -25
l50 0 0 -85 c0 -92 -2 -89 63 -79 l37 7 0 78 0 79 50 0 c47 0 50 2 50 25 0 23
-3 25 -50 25 l-50 0 0 50 0 50 -50 0 -50 0 0 -50z"/>
<path d="M880 1245 c0 -20 -5 -25 -25 -25 -24 0 -25 -2 -25 -75 0 -73 1 -75
25 -75 20 0 25 -5 25 -25 l0 -25 125 0 125 0 0 25 c0 20 5 25 25 25 24 0 25 2
25 75 0 73 -1 75 -25 75 -20 0 -25 5 -25 25 l0 25 -125 0 -125 0 0 -25z m200
-100 l0 -75 -75 0 -75 0 0 75 0 75 75 0 75 0 0 -75z"/>
<path d="M1230 1145 l0 -125 50 0 50 0 0 100 0 100 75 0 75 0 0 -100 0 -100
50 0 50 0 0 100 0 100 -25 0 c-20 0 -25 5 -25 25 l0 25 -150 0 -150 0 0 -125z"/>
<path d="M1680 1245 c0 -20 -5 -25 -25 -25 -20 0 -25 -5 -25 -25 0 -20 5 -25
25 -25 20 0 25 -5 25 -25 l0 -25 100 0 100 0 0 -25 0 -25 -125 0 -125 0 0 -25
0 -25 150 0 150 0 0 25 c0 20 5 25 25 25 20 0 25 5 25 25 0 20 -5 25 -25 25
-20 0 -25 5 -25 25 l0 25 -100 0 -100 0 0 25 0 25 100 0 100 0 0 25 0 25 -125
0 -125 0 0 -25z"/>
<path d="M2420 1245 l0 -25 100 0 100 0 0 -25 0 -25 -100 0 -100 0 0 -25 c0
-20 -5 -25 -25 -25 -19 0 -25 -5 -25 -21 0 -19 4 -21 31 -15 17 3 40 6 50 6
11 0 19 7 19 16 0 13 13 15 83 14 45 -1 101 -2 125 -1 l42 1 0 50 c0 47 -2 50
-25 50 -20 0 -25 5 -25 25 l0 25 -125 0 -125 0 0 -25z"/>
<path d="M2820 1204 l0 -67 48 7 c26 3 49 11 50 16 2 6 15 10 28 10 19 0 24 5
24 25 0 24 2 25 75 25 73 0 75 1 75 25 0 24 -2 25 -75 25 -73 0 -75 -1 -75
-25 0 -20 -5 -25 -25 -25 -20 0 -25 5 -25 25 0 23 -3 25 -50 25 l-50 0 0 -66z"/>
</g>
</svg>
